<svg width="59" height="68" viewBox="0 0 59 68" fill="none" xmlns="http://www.w3.org/2000/svg">
<path d="M14.0391 18.6406H33.9141C37.2266 18.6406 39.7656 19.4609 41.5312 21.1016C43.3125 22.7422 44.2031 24.7734 44.2031 27.1953C44.2031 29.2266 43.5703 30.9688 42.3047 32.4219C41.4609 33.3906 40.2266 34.1562 38.6016 34.7188C41.0703 35.3125 42.8828 36.3359 44.0391 37.7891C45.2109 39.2266 45.7969 41.0391 45.7969 43.2266C45.7969 45.0078 45.3828 46.6094 44.5547 48.0312C43.7266 49.4531 42.5938 50.5781 41.1562 51.4062C40.2656 51.9219 38.9219 52.2969 37.125 52.5312C34.7344 52.8438 33.1484 53 32.3672 53H14.0391V18.6406ZM24.75 32.1172H29.3672C31.0234 32.1172 32.1719 31.8359 32.8125 31.2734C33.4688 30.6953 33.7969 29.8672 33.7969 28.7891C33.7969 27.7891 33.4688 27.0078 32.8125 26.4453C32.1719 25.8828 31.0469 25.6016 29.4375 25.6016H24.75V32.1172ZM24.75 45.6172H30.1641C31.9922 45.6172 33.2812 45.2969 34.0312 44.6562C34.7812 44 35.1562 43.125 35.1562 42.0312C35.1562 41.0156 34.7812 40.2031 34.0312 39.5938C33.2969 38.9688 32 38.6562 30.1406 38.6562H24.75V45.6172Z" fill="white"/>
<circle cx="29.25" cy="33.75" r="28.1946" stroke="white" stroke-width="2.11082"/>
</svg>
